<mxfile host="app.diagrams.net" agent="Mozilla/5.0 (X11; Linux x86_64; rv:130.0) Gecko/20100101 Firefox/130.0" version="24.7.12">
  <diagram name="Page-1" id="ZGhEBNhKu5csJT_1Xdkg">
    <mxGraphModel dx="880" dy="478" grid="1" gridSize="10" guides="1" tooltips="1" connect="1" arrows="1" fold="1" page="1" pageScale="1" pageWidth="850" pageHeight="1100" math="0" shadow="0">
      <root>
        <mxCell id="0" />
        <mxCell id="1" parent="0" />
        <mxCell id="004JyHi7szteqsyII5Ky-5" style="edgeStyle=orthogonalEdgeStyle;rounded=0;orthogonalLoop=1;jettySize=auto;html=1;exitX=0.5;exitY=0;exitDx=0;exitDy=0;entryX=0.5;entryY=1;entryDx=0;entryDy=0;" parent="1" source="004JyHi7szteqsyII5Ky-1" target="004JyHi7szteqsyII5Ky-6" edge="1">
          <mxGeometry relative="1" as="geometry">
            <mxPoint x="480" y="130" as="targetPoint" />
          </mxGeometry>
        </mxCell>
        <mxCell id="004JyHi7szteqsyII5Ky-1" value="Professor" style="swimlane;fontStyle=1;align=center;verticalAlign=top;childLayout=stackLayout;horizontal=1;startSize=26;horizontalStack=0;resizeParent=1;resizeParentMax=0;resizeLast=0;collapsible=1;marginBottom=0;whiteSpace=wrap;html=1;" parent="1" vertex="1">
          <mxGeometry x="170" y="250" width="740" height="250" as="geometry" />
        </mxCell>
        <mxCell id="004JyHi7szteqsyII5Ky-2" value="&lt;div&gt;+ titulacao: String&lt;/div&gt;&lt;div&gt;+ disciplinas: ArrayList&amp;lt;Disciplina&amp;gt;&lt;br&gt;&lt;/div&gt;&lt;div&gt;+ turmas: ArrayList&amp;lt;Turma&amp;gt;&lt;br&gt;&lt;/div&gt;" style="text;strokeColor=none;fillColor=none;align=left;verticalAlign=top;spacingLeft=4;spacingRight=4;overflow=hidden;rotatable=0;points=[[0,0.5],[1,0.5]];portConstraint=eastwest;whiteSpace=wrap;html=1;" parent="004JyHi7szteqsyII5Ky-1" vertex="1">
          <mxGeometry y="26" width="740" height="54" as="geometry" />
        </mxCell>
        <mxCell id="004JyHi7szteqsyII5Ky-3" value="" style="line;strokeWidth=1;fillColor=none;align=left;verticalAlign=middle;spacingTop=-1;spacingLeft=3;spacingRight=3;rotatable=0;labelPosition=right;points=[];portConstraint=eastwest;strokeColor=inherit;" parent="004JyHi7szteqsyII5Ky-1" vertex="1">
          <mxGeometry y="80" width="740" height="8" as="geometry" />
        </mxCell>
        <mxCell id="004JyHi7szteqsyII5Ky-4" value="&lt;div&gt;+ void adicionarDisciplina(Disciplina d)&lt;/div&gt;&lt;div&gt;+ void adicionarProvaDisciplina(String nomeDisciplina, String nomeProva, String nomeTurma, float peso)&lt;br&gt;&lt;/div&gt;&lt;div&gt;+ void adicionarTrabalhoDisciplina(String nomeDisciplina, String nomeTurma, String nomeTrabalho, float peso)&lt;/div&gt;&lt;div&gt;+ void adicionarPontoExtraDisciplina(String nomeDisciplina, String nomePontoExtra, String nomeTurma, float valorMaximo)&lt;/div&gt;&lt;div&gt;+ void adicioanrNotaProva(String nomeAluno, String nomeDisciplina, String nomeProva, float notaProva, String nomeTurma)&lt;br&gt;&lt;/div&gt;&lt;div&gt;+ void adicionarNotaTrabalho(String nomeAluno, String nomeDisciplina, String nomeTrabalho, float notaTrabalho, String nomeTurma)&lt;/div&gt;&lt;div&gt;+ void adicionarNotaPontoExtra(String nomeAluno, String nomeDisciplina, String nomePontoExtra, String nomeTurma, float valor)&lt;/div&gt;&lt;div&gt;+ void removerNotaProva(String nomeAluno, String nomeDisciplina, String nomeProva, float notaProva, String nomeTurma)&lt;/div&gt;&lt;div&gt;+ void removerNotaTrabalho(String nomeAluno, String nomeDisciplina, String nomeTrabalho, float notaTrabalho, String nomeTurma)&lt;/div&gt;&lt;div&gt;+ void removerNotaPontoExtra(String nomeAluno, String nomeDisciplina, String nomePontoExtra, String nomeTurma, float valor)&lt;br&gt;&lt;/div&gt;" style="text;strokeColor=none;fillColor=none;align=left;verticalAlign=top;spacingLeft=4;spacingRight=4;overflow=hidden;rotatable=0;points=[[0,0.5],[1,0.5]];portConstraint=eastwest;whiteSpace=wrap;html=1;" parent="004JyHi7szteqsyII5Ky-1" vertex="1">
          <mxGeometry y="88" width="740" height="162" as="geometry" />
        </mxCell>
        <mxCell id="004JyHi7szteqsyII5Ky-6" value="Usuario" style="swimlane;fontStyle=0;childLayout=stackLayout;horizontal=1;startSize=26;fillColor=none;horizontalStack=0;resizeParent=1;resizeParentMax=0;resizeLast=0;collapsible=1;marginBottom=0;whiteSpace=wrap;html=1;" parent="1" vertex="1">
          <mxGeometry x="420" y="10" width="140" height="78" as="geometry" />
        </mxCell>
        <mxCell id="004JyHi7szteqsyII5Ky-7" value="+ nome: String" style="text;strokeColor=none;fillColor=none;align=left;verticalAlign=top;spacingLeft=4;spacingRight=4;overflow=hidden;rotatable=0;points=[[0,0.5],[1,0.5]];portConstraint=eastwest;whiteSpace=wrap;html=1;" parent="004JyHi7szteqsyII5Ky-6" vertex="1">
          <mxGeometry y="26" width="140" height="26" as="geometry" />
        </mxCell>
        <mxCell id="004JyHi7szteqsyII5Ky-8" value="+ ID: String" style="text;strokeColor=none;fillColor=none;align=left;verticalAlign=top;spacingLeft=4;spacingRight=4;overflow=hidden;rotatable=0;points=[[0,0.5],[1,0.5]];portConstraint=eastwest;whiteSpace=wrap;html=1;" parent="004JyHi7szteqsyII5Ky-6" vertex="1">
          <mxGeometry y="52" width="140" height="26" as="geometry" />
        </mxCell>
      </root>
    </mxGraphModel>
  </diagram>
</mxfile>
